<svg id="visual" viewBox="0 0 960 540" width="960" height="540" xmlns="http://www.w3.org/2000/svg" xmlns:xlink="http://www.w3.org/1999/xlink" version="1.1"><path d="M0 359L7 353.3C14 347.7 28 336.3 41.8 336.8C55.7 337.3 69.3 349.7 83.2 347.3C97 345 111 328 125 326C139 324 153 337 167 337.8C181 338.7 195 327.3 208.8 327.8C222.7 328.3 236.3 340.7 250.2 347.8C264 355 278 357 292 353.2C306 349.3 320 339.7 334 339.5C348 339.3 362 348.7 375.8 346.7C389.7 344.7 403.3 331.3 417.2 324.5C431 317.7 445 317.3 459 317.8C473 318.3 487 319.7 501 322.8C515 326 529 331 542.8 331.3C556.7 331.7 570.3 327.3 584.2 329.3C598 331.3 612 339.7 626 345C640 350.3 654 352.7 668 352.7C682 352.7 696 350.3 709.8 349.5C723.7 348.7 737.3 349.3 751.2 345.8C765 342.3 779 334.7 793 328.8C807 323 821 319 835 320.8C849 322.7 863 330.3 876.8 335.7C890.7 341 904.3 344 918.2 347.7C932 351.3 946 355.7 953 357.8L960 360L960 541L953 541C946 541 932 541 918.2 541C904.3 541 890.7 541 876.8 541C863 541 849 541 835 541C821 541 807 541 793 541C779 541 765 541 751.2 541C737.3 541 723.7 541 709.8 541C696 541 682 541 668 541C654 541 640 541 626 541C612 541 598 541 584.2 541C570.3 541 556.7 541 542.8 541C529 541 515 541 501 541C487 541 473 541 459 541C445 541 431 541 417.2 541C403.3 541 389.7 541 375.8 541C362 541 348 541 334 541C320 541 306 541 292 541C278 541 264 541 250.2 541C236.3 541 222.7 541 208.8 541C195 541 181 541 167 541C153 541 139 541 125 541C111 541 97 541 83.2 541C69.3 541 55.7 541 41.8 541C28 541 14 541 7 541L0 541Z" fill="#a7acd8"></path><path d="M0 384L7 377.7C14 371.3 28 358.7 41.8 354C55.7 349.3 69.3 352.7 83.2 354.7C97 356.7 111 357.3 125 360.7C139 364 153 370 167 371.8C181 373.7 195 371.3 208.8 366.8C222.7 362.3 236.3 355.7 250.2 358.2C264 360.7 278 372.3 292 375.8C306 379.3 320 374.7 334 369.5C348 364.3 362 358.7 375.8 356.3C389.7 354 403.3 355 417.2 358.7C431 362.3 445 368.7 459 370.3C473 372 487 369 501 366.5C515 364 529 362 542.8 359.3C556.7 356.7 570.3 353.3 584.2 358.3C598 363.3 612 376.7 626 380.5C640 384.3 654 378.7 668 372.5C682 366.3 696 359.7 709.8 355.5C723.7 351.3 737.3 349.7 751.2 352.2C765 354.7 779 361.3 793 368.5C807 375.7 821 383.3 835 387.2C849 391 863 391 876.8 384C890.7 377 904.3 363 918.2 356C932 349 946 349 953 349L960 349L960 541L953 541C946 541 932 541 918.2 541C904.3 541 890.7 541 876.8 541C863 541 849 541 835 541C821 541 807 541 793 541C779 541 765 541 751.2 541C737.3 541 723.7 541 709.8 541C696 541 682 541 668 541C654 541 640 541 626 541C612 541 598 541 584.2 541C570.3 541 556.7 541 542.8 541C529 541 515 541 501 541C487 541 473 541 459 541C445 541 431 541 417.2 541C403.3 541 389.7 541 375.8 541C362 541 348 541 334 541C320 541 306 541 292 541C278 541 264 541 250.2 541C236.3 541 222.7 541 208.8 541C195 541 181 541 167 541C153 541 139 541 125 541C111 541 97 541 83.2 541C69.3 541 55.7 541 41.8 541C28 541 14 541 7 541L0 541Z" fill="#afb3df"></path><path d="M0 410L7 411.7C14 413.3 28 416.7 41.8 416.5C55.7 416.3 69.3 412.7 83.2 412.8C97 413 111 417 125 416.2C139 415.3 153 409.7 167 405C181 400.3 195 396.7 208.8 395.7C222.7 394.7 236.3 396.3 250.2 397.7C264 399 278 400 292 400.2C306 400.3 320 399.7 334 399C348 398.3 362 397.7 375.8 401.7C389.7 405.7 403.3 414.3 417.2 417.7C431 421 445 419 459 417.8C473 416.7 487 416.3 501 414.7C515 413 529 410 542.8 409.3C556.7 408.7 570.3 410.3 584.2 407.8C598 405.3 612 398.7 626 400.2C640 401.7 654 411.3 668 415C682 418.7 696 416.3 709.8 412.8C723.7 409.3 737.3 404.7 751.2 402.7C765 400.7 779 401.3 793 401.5C807 401.7 821 401.3 835 404.2C849 407 863 413 876.8 411C890.7 409 904.3 399 918.2 397.7C932 396.3 946 403.7 953 407.3L960 411L960 541L953 541C946 541 932 541 918.2 541C904.3 541 890.7 541 876.8 541C863 541 849 541 835 541C821 541 807 541 793 541C779 541 765 541 751.2 541C737.3 541 723.7 541 709.8 541C696 541 682 541 668 541C654 541 640 541 626 541C612 541 598 541 584.2 541C570.3 541 556.7 541 542.8 541C529 541 515 541 501 541C487 541 473 541 459 541C445 541 431 541 417.2 541C403.3 541 389.7 541 375.8 541C362 541 348 541 334 541C320 541 306 541 292 541C278 541 264 541 250.2 541C236.3 541 222.7 541 208.8 541C195 541 181 541 167 541C153 541 139 541 125 541C111 541 97 541 83.2 541C69.3 541 55.7 541 41.8 541C28 541 14 541 7 541L0 541Z" fill="#b8bae6"></path><path d="M0 427L7 431.2C14 435.3 28 443.7 41.8 448C55.7 452.3 69.3 452.7 83.2 447.7C97 442.7 111 432.3 125 429C139 425.7 153 429.3 167 431.2C181 433 195 433 208.8 433.3C222.7 433.7 236.3 434.3 250.2 435.7C264 437 278 439 292 439C306 439 320 437 334 437.3C348 437.7 362 440.3 375.8 440.5C389.7 440.7 403.3 438.3 417.2 439.8C431 441.3 445 446.7 459 448.7C473 450.7 487 449.3 501 445.3C515 441.3 529 434.7 542.8 429.2C556.7 423.7 570.3 419.3 584.2 420.7C598 422 612 429 626 432.3C640 435.7 654 435.3 668 432.5C682 429.7 696 424.3 709.8 426.5C723.7 428.7 737.3 438.3 751.2 443.3C765 448.3 779 448.7 793 445.7C807 442.7 821 436.3 835 435.8C849 435.3 863 440.7 876.8 439.7C890.7 438.7 904.3 431.3 918.2 430.2C932 429 946 434 953 436.5L960 439L960 541L953 541C946 541 932 541 918.2 541C904.3 541 890.7 541 876.8 541C863 541 849 541 835 541C821 541 807 541 793 541C779 541 765 541 751.2 541C737.3 541 723.7 541 709.8 541C696 541 682 541 668 541C654 541 640 541 626 541C612 541 598 541 584.2 541C570.3 541 556.7 541 542.8 541C529 541 515 541 501 541C487 541 473 541 459 541C445 541 431 541 417.2 541C403.3 541 389.7 541 375.8 541C362 541 348 541 334 541C320 541 306 541 292 541C278 541 264 541 250.2 541C236.3 541 222.7 541 208.8 541C195 541 181 541 167 541C153 541 139 541 125 541C111 541 97 541 83.2 541C69.3 541 55.7 541 41.8 541C28 541 14 541 7 541L0 541Z" fill="#c0c2ec"></path><path d="M0 481L7 478.7C14 476.3 28 471.7 41.8 466.7C55.7 461.7 69.3 456.3 83.2 457.8C97 459.3 111 467.7 125 472C139 476.3 153 476.7 167 473.3C181 470 195 463 208.8 460.5C222.7 458 236.3 460 250.2 463C264 466 278 470 292 468.7C306 467.3 320 460.7 334 458.5C348 456.3 362 458.7 375.8 463.8C389.7 469 403.3 477 417.2 476C431 475 445 465 459 463.5C473 462 487 469 501 468.7C515 468.3 529 460.7 542.8 459.3C556.7 458 570.3 463 584.2 465.7C598 468.3 612 468.7 626 466.2C640 463.7 654 458.3 668 456C682 453.7 696 454.3 709.8 457.5C723.7 460.7 737.3 466.3 751.2 468.2C765 470 779 468 793 470.2C807 472.3 821 478.7 835 480.3C849 482 863 479 876.8 473.5C890.7 468 904.3 460 918.2 459.7C932 459.3 946 466.7 953 470.3L960 474L960 541L953 541C946 541 932 541 918.2 541C904.3 541 890.7 541 876.8 541C863 541 849 541 835 541C821 541 807 541 793 541C779 541 765 541 751.2 541C737.3 541 723.7 541 709.8 541C696 541 682 541 668 541C654 541 640 541 626 541C612 541 598 541 584.2 541C570.3 541 556.7 541 542.8 541C529 541 515 541 501 541C487 541 473 541 459 541C445 541 431 541 417.2 541C403.3 541 389.7 541 375.8 541C362 541 348 541 334 541C320 541 306 541 292 541C278 541 264 541 250.2 541C236.3 541 222.7 541 208.8 541C195 541 181 541 167 541C153 541 139 541 125 541C111 541 97 541 83.2 541C69.3 541 55.7 541 41.8 541C28 541 14 541 7 541L0 541Z" fill="#c9c9f3"></path><path d="M0 514L7 510C14 506 28 498 41.8 496.5C55.7 495 69.3 500 83.2 500.3C97 500.7 111 496.3 125 497.8C139 499.3 153 506.7 167 509.8C181 513 195 512 208.8 507.7C222.7 503.3 236.3 495.7 250.2 494.8C264 494 278 500 292 504.2C306 508.3 320 510.7 334 509.7C348 508.7 362 504.3 375.8 501C389.7 497.7 403.3 495.3 417.2 495.3C431 495.3 445 497.7 459 498.3C473 499 487 498 501 497C515 496 529 495 542.8 496C556.7 497 570.3 500 584.2 501C598 502 612 501 626 502C640 503 654 506 668 508.5C682 511 696 513 709.8 511.8C723.7 510.7 737.3 506.3 751.2 506.2C765 506 779 510 793 507.5C807 505 821 496 835 494.3C849 492.7 863 498.3 876.8 502.5C890.7 506.7 904.3 509.3 918.2 507.5C932 505.7 946 499.3 953 496.2L960 493L960 541L953 541C946 541 932 541 918.2 541C904.3 541 890.7 541 876.8 541C863 541 849 541 835 541C821 541 807 541 793 541C779 541 765 541 751.2 541C737.3 541 723.7 541 709.8 541C696 541 682 541 668 541C654 541 640 541 626 541C612 541 598 541 584.2 541C570.3 541 556.7 541 542.8 541C529 541 515 541 501 541C487 541 473 541 459 541C445 541 431 541 417.2 541C403.3 541 389.7 541 375.8 541C362 541 348 541 334 541C320 541 306 541 292 541C278 541 264 541 250.2 541C236.3 541 222.7 541 208.8 541C195 541 181 541 167 541C153 541 139 541 125 541C111 541 97 541 83.2 541C69.3 541 55.7 541 41.8 541C28 541 14 541 7 541L0 541Z" fill="#d2d1fa"></path></svg>